<svg width="154" height="160" viewBox="0 0 154 160" fill="none" xmlns="http://www.w3.org/2000/svg">
<path fill-rule="evenodd" clip-rule="evenodd" d="M77 111.654C78.5316 111.654 80.0005 111.046 81.0835 109.963C82.1665 108.88 82.775 107.411 82.775 105.879V21.3872L95.711 36.4869C96.7076 37.6509 98.1257 38.3714 99.6535 38.4898C101.181 38.6082 102.694 38.1149 103.858 37.1183C105.022 36.1217 105.742 34.7035 105.861 33.1758C105.979 31.648 105.486 30.1357 104.489 28.9717L81.389 2.02169C80.8468 1.38772 80.1738 0.878718 79.4161 0.529718C78.6585 0.180717 77.8342 0 77 0C76.1658 0 75.3415 0.180717 74.5839 0.529718C73.8262 0.878718 73.1532 1.38772 72.611 2.02169L49.511 28.9717C49.0175 29.5481 48.6424 30.216 48.4071 30.9373C48.1718 31.6587 48.0808 32.4193 48.1395 33.1758C48.1981 33.9322 48.4052 34.6698 48.7488 35.3462C49.0925 36.0227 49.566 36.6248 50.1424 37.1183C50.7188 37.6117 51.3867 37.9868 52.108 38.2222C52.8294 38.4575 53.59 38.5484 54.3465 38.4898C55.1029 38.4312 55.8405 38.2241 56.5169 37.8805C57.1934 37.5368 57.7955 37.0633 58.289 36.4869L71.225 21.3949V105.879C71.225 109.067 73.8122 111.654 77 111.654Z" fill="#B7C4E0"/>
<path d="M107.8 59.6793C102.395 59.6793 99.6919 59.6793 97.7438 60.9806C96.9062 61.541 96.1868 62.2605 95.6263 63.0981C94.325 65.0462 94.325 67.7489 94.325 73.1543V105.879C94.325 110.474 92.4997 114.881 89.2506 118.13C86.0016 121.379 81.5949 123.204 77 123.204C72.4051 123.204 67.9984 121.379 64.7494 118.13C61.5003 114.881 59.675 110.474 59.675 105.879V73.1543C59.675 67.7489 59.675 65.0462 58.3737 63.0981C57.8132 62.2605 57.0938 61.541 56.2562 60.9806C54.3081 59.6793 51.6054 59.6793 46.2 59.6793C24.4244 59.6793 13.5289 59.6793 6.7683 66.4476C-4.58956e-07 73.2082 0 84.0883 0 105.872V113.572C0 135.363 -4.58956e-07 146.243 6.7683 153.011C13.5289 159.779 24.4244 159.779 46.2 159.779H107.8C129.576 159.779 140.471 159.779 147.232 153.011C153.992 146.243 154 135.355 154 113.579V105.879C154 84.096 154 73.2082 147.232 66.4476C140.471 59.6793 129.576 59.6793 107.8 59.6793Z" fill="#B7C4E0"/>
</svg>
